# xmcd
#
# Track frame offsets:
#	150
#	18144
#	26660
#	39752
#	52137
#	72581
#	85718
#	97619
#	113052
#	126421
#	139809
#	150775
#
# Disc length: 2222 seconds
#
# Revision: 0
# Processed by: cddbd v1.5.2PL0 Copyright (c) Steve Scherf et al.
# Submitted via: EasyCDDAExtractor 16.0.6.1
#
DISCID=8c08ac0c
DTITLE=Νταλάρας Γιώργος - Ο Γιώργος Νταλάρας τραγουδάει Καλδάρα
DYEAR=1971
DGENRE=Λαϊκή
TTITLE0=Νύχτωσε χωρίς φεγγάρι [στ. Απόστολος Καλδάρας]
TTITLE1=Εβίβα ρεμπέτες [στ. Απόστολος Καλδάρας]
TTITLE2=Εγώ ποτέ δεν αγαπώ [στ. Κώστας Βίρβος]
TTITLE3=Γιατί πονάς και βασανίζεσαι [στ. Κώστας Βίρβος]
TTITLE4=Είμ' ένα κορμί χαμένο [στ. Κώστας Βίρβος]
TTITLE5=Μένα με λένε Περικλή [στ. Απόστολος Καλδάρας]
TTITLE6=Η Μπαρμπαριά (Ένα τραγ. απ' τ' Αλγέρι) [στ. Απόστολος Καλδάρας]
TTITLE7=Ποιος θα με πκηροφορήσει [Ευτ. Παπαγιαννοπούλου]
TTITLE8=Είπα να σβήσω τα παλιά [στ. Απόστολος Καλδάρας]
TTITLE9=Θα βρω μουρμούρη μπαγλαμά [Ευτ. Παπαγιαννοπούλου]
TTITLE10=Φορτώθηκα τις τύψεις μου[Νταλάρας/Καλδάρας-Ε.Παπαγιανοπούλου]
TTITLE11=Απ' τα ψηλά στα χαμηλά [Ευτ. Παπαγιαννοπούλου]
EXTD=
EXTT0=
EXTT1=
EXTT2=
EXTT3=
EXTT4=
EXTT5=
EXTT6=
EXTT7=
EXTT8=
EXTT9=
EXTT10=
EXTT11=
PLAYORDER=
